<?xml version="1.0" standalone="no"?>
<!DOCTYPE svg PUBLIC "-//W3C//DTD SVG 20010904//EN"
 "http://www.w3.org/TR/2001/REC-SVG-20010904/DTD/svg10.dtd">
<svg version="1.0" xmlns="http://www.w3.org/2000/svg"
 width="512.000000pt" height="512.000000pt" viewBox="0 0 512.000000 512.000000"
 preserveAspectRatio="xMidYMid meet">
<metadata>
Created by potrace 1.14, written by Peter Selinger 2001-2017
</metadata>
<g transform="translate(0.000000,512.000000) scale(0.100000,-0.100000)"
fill="#000000" stroke="none">
<path d="M2378 5110 c-18 -4 -24 -10 -22 -25 2 -11 4 -37 5 -58 l2 -38 61 3
61 3 -2 50 c0 28 -2 56 -2 62 -1 13 -48 14 -103 3z"/>
<path d="M2639 5118 c-1 -1 -3 -29 -5 -60 -4 -54 -3 -58 19 -63 13 -4 41 -5
62 -3 36 3 38 5 42 43 2 22 5 45 8 52 2 7 1 14 -3 17 -10 6 -122 19 -123 14z"/>
<path d="M2179 5085 c-3 -2 -23 -7 -45 -11 -21 -3 -43 -9 -47 -13 -5 -5 -2
-33 5 -62 14 -58 13 -58 86 -44 l44 8 -7 46 c-10 75 -19 93 -36 76z"/>
<path d="M2904 5031 c-11 -68 -13 -66 65 -77 l48 -6 7 38 c4 22 10 48 12 60 5
18 0 22 -28 27 -18 3 -47 9 -63 12 l-31 7 -10 -61z"/>
<path d="M1870 4997 c-30 -11 -57 -22 -59 -23 -5 -5 42 -114 50 -114 3 0 22 6
40 14 19 7 42 16 51 19 15 5 15 10 -4 64 -11 32 -21 59 -22 59 0 1 -26 -8 -56
-19z"/>
<path d="M3187 5013 c-3 -5 -12 -31 -20 -59 l-15 -50 48 -17 c26 -9 52 -17 58
-17 11 0 55 101 47 109 -7 6 -97 41 -107 41 -4 0 -9 -3 -11 -7z"/>
<path d="M3426 4864 c-16 -30 -27 -56 -25 -58 2 -2 26 -15 53 -29 l50 -26 28
50 c16 27 26 54 23 60 -4 5 -28 20 -54 33 l-47 24 -28 -54z"/>
<path d="M1613 4882 c-29 -15 -53 -31 -53 -37 0 -6 13 -32 30 -58 l29 -46 48
26 c26 15 49 27 51 28 3 2 -24 63 -40 91 l-13 22 -52 -26z"/>
<path d="M3660 4725 c-17 -25 -29 -49 -26 -53 3 -5 24 -22 47 -37 l41 -29 39
44 c21 25 38 47 38 50 0 8 -87 70 -98 70 -6 0 -24 -20 -41 -45z"/>
<path d="M1366 4724 l-46 -35 36 -45 c20 -24 41 -44 48 -44 6 0 29 15 50 33
l39 34 -32 46 c-17 26 -36 47 -40 47 -4 0 -29 -16 -55 -36z"/>
<path d="M3890 4573 c-12 -16 -30 -36 -39 -46 -14 -17 -12 -21 28 -58 l44 -41
43 43 44 43 -42 43 c-23 24 -45 43 -48 43 -4 0 -17 -12 -30 -27z"/>
<path d="M1158 4547 l-47 -44 42 -41 c24 -23 46 -42 49 -42 8 0 78 73 78 81 0
3 -17 25 -38 48 l-38 42 -46 -44z"/>
<path d="M2503 4581 c-7 -5 -9 -44 -4 -108 1 -9 20 -13 61 -13 l61 0 -3 62 -3
62 -52 2 c-29 0 -56 -2 -60 -5z"/>
<path d="M2249 4555 l-35 -10 11 -55 11 -55 54 3 c55 2 70 12 64 41 -1 9 -6
33 -9 53 -5 33 -9 37 -34 35 -15 -1 -43 -6 -62 -12z"/>
<path d="M2769 4539 c0 -19 -2 -46 -4 -61 -3 -23 1 -28 26 -32 97 -19 86 -23
99 39 7 32 8 61 3 65 -4 5 -34 11 -65 15 l-58 7 -1 -33z"/>
<path d="M3038 4466 c-7 -28 -13 -55 -13 -60 0 -8 106 -50 110 -43 14 30 36
110 31 114 -4 4 -31 15 -61 24 l-54 16 -13 -51z"/>
<path d="M2040 4504 c-8 -3 -34 -12 -56 -20 l-42 -15 20 -52 c11 -28 22 -55
24 -58 2 -4 29 2 59 14 43 15 54 24 50 36 -4 9 -11 35 -18 59 -6 23 -14 42
-17 41 -3 0 -12 -3 -20 -5z"/>
<path d="M3295 4370 c-14 -27 -25 -54 -25 -59 0 -5 22 -20 49 -35 l49 -25 26
43 c14 23 26 48 28 55 2 6 -21 25 -49 41 l-53 29 -25 -49z"/>
<path d="M1745 4380 c-27 -16 -49 -35 -47 -42 2 -6 15 -31 29 -55 l25 -43 49
27 c27 16 49 32 49 36 0 8 -49 107 -53 107 -1 0 -24 -14 -52 -30z"/>
<path d="M4073 4367 c-23 -17 -44 -37 -46 -43 -3 -6 12 -30 33 -54 l38 -43 43
33 c24 19 46 35 48 37 4 3 -18 37 -51 75 l-23 28 -42 -33z"/>
<path d="M985 4356 c-11 -12 -28 -34 -37 -48 -16 -25 -16 -25 28 -57 25 -17
49 -31 53 -31 9 0 71 79 71 90 0 7 -81 70 -89 70 -3 0 -15 -11 -26 -24z"/>
<path d="M3523 4223 l-31 -46 45 -37 46 -37 31 36 c17 20 34 38 39 39 18 8 4
31 -37 60 -24 18 -48 32 -53 32 -4 0 -22 -21 -40 -47z"/>
<path d="M1501 4222 l-43 -38 37 -44 c21 -25 40 -44 44 -42 3 1 25 16 48 33
l43 30 -33 49 c-17 27 -37 50 -42 50 -6 0 -30 -17 -54 -38z"/>
<path d="M2497 4164 c-1 -1 -40 -4 -87 -8 -320 -25 -643 -155 -910 -365 -58
-45 -225 -212 -272 -271 -95 -121 -223 -345 -258 -452 -6 -21 -14 -38 -17 -38
-3 0 -2 17 2 38 4 20 9 46 10 58 10 77 62 243 115 365 l37 86 -55 27 c-30 15
-56 26 -57 24 -12 -12 -73 -161 -102 -246 -93 -280 -111 -553 -58 -892 17
-108 24 -224 14 -212 -10 10 -67 146 -89 212 -33 99 -64 224 -75 310 -4 30
-10 64 -12 75 -3 11 -6 99 -8 195 -3 177 8 295 40 440 3 14 8 36 11 49 11 52
68 220 101 294 19 43 33 80 31 81 -16 12 -91 46 -101 46 -38 -1 -168 -404
-191 -592 -3 -27 -9 -69 -12 -95 -8 -63 -9 -325 0 -385 3 -27 9 -69 12 -95 31
-263 153 -583 315 -828 40 -60 87 -144 105 -186 52 -122 146 -292 182 -328 9
-9 11 -23 6 -40 -18 -64 -13 -73 53 -95 51 -17 74 -33 129 -89 l66 -68 -15
-57 c-54 -199 -303 -1081 -312 -1105 -7 -16 35 -17 796 -17 l804 0 98 348 c54
191 102 363 107 383 l10 37 120 0 119 1 -10 -25 c-5 -14 -9 -31 -9 -38 0 -13
98 -49 111 -40 5 3 15 26 22 52 l14 47 259 2 c142 1 271 2 285 2 24 1 28 7 53
104 14 56 60 233 102 392 41 160 76 297 78 305 2 13 38 15 231 18 l227 2 -5
23 c-2 12 -21 83 -41 157 -20 74 -51 193 -70 263 l-34 128 43 92 c75 162 143
390 170 577 10 71 14 430 5 485 -4 28 -11 70 -14 95 -9 67 -15 99 -33 165 -8
33 -16 67 -18 76 -12 62 -115 320 -130 325 -16 7 -105 -35 -105 -49 0 -7 10
-32 21 -57 53 -114 111 -303 133 -430 3 -19 8 -46 11 -60 9 -43 19 -191 19
-285 0 -225 -43 -464 -121 -667 -14 -37 -29 -65 -33 -63 -17 11 -26 86 -17
140 5 27 13 88 23 170 7 50 6 271 -1 328 -24 205 -76 393 -155 564 l-39 83
-53 -26 c-29 -15 -54 -27 -55 -28 -1 -1 15 -40 36 -86 61 -136 112 -307 125
-415 5 -44 5 -47 -6 -25 -6 14 -33 70 -59 125 -80 170 -184 318 -321 456 -97
98 -121 119 -217 189 -237 173 -538 287 -826 316 -64 6 -243 12 -248 8z"/>
<path d="M4235 4144 c-22 -15 -44 -30 -49 -34 -9 -9 41 -100 56 -100 8 0 78
34 98 48 6 4 -52 112 -60 112 -3 0 -23 -12 -45 -26z"/>
<path d="M812 4101 l-31 -57 56 -28 c30 -15 56 -26 58 -24 10 14 55 101 53
103 -2 1 -26 15 -54 32 l-51 31 -31 -57z"/>
<path d="M3739 4054 l-43 -44 25 -27 c60 -65 51 -64 103 -18 l48 41 -45 46
-44 47 -44 -45z"/>
<path d="M1296 4040 c-20 -22 -36 -44 -36 -49 0 -5 20 -25 43 -44 l44 -36 42
42 41 43 -43 42 c-23 23 -45 42 -49 42 -3 0 -22 -18 -42 -40z"/>
<path d="M3930 3859 c-14 -12 -33 -27 -44 -34 -17 -13 -17 -15 10 -52 15 -21
31 -42 35 -47 4 -5 31 6 59 24 56 36 56 25 4 105 -20 30 -31 31 -64 4z"/>
<path d="M1122 3825 c-18 -25 -32 -49 -32 -54 0 -5 11 -16 25 -25 81 -52 70
-52 104 -2 17 24 31 48 31 53 -1 7 -84 73 -93 73 -2 0 -18 -20 -35 -45z"/>
<path d="M1095 1183 c-5 -16 -9 -33 -10 -39 -2 -6 -6 -20 -9 -31 -5 -16 1 -21
36 -30 24 -7 50 -14 59 -18 13 -5 20 5 34 50 11 33 14 59 9 64 -10 8 -84 31
-102 31 -5 0 -13 -12 -17 -27z"/>
<path d="M1020 948 c0 -2 -9 -28 -19 -58 l-18 -54 55 -19 c30 -10 58 -15 62
-10 8 9 41 105 37 108 -13 10 -117 39 -117 33z"/>
<path d="M921 643 c-8 -27 -16 -53 -18 -59 -3 -7 21 -20 55 -31 l60 -19 16 51
c9 29 16 56 16 62 0 7 -92 43 -111 43 -3 0 -11 -21 -18 -47z"/>
<path d="M3075 540 c-7 -11 -35 -103 -32 -106 1 -1 26 -9 56 -19 60 -20 63
-18 81 45 15 53 13 57 -37 74 -54 19 -60 19 -68 6z"/>
<path d="M832 370 l-21 -60 54 -16 c30 -8 58 -16 61 -17 6 -2 18 25 38 90 6
19 0 24 -49 42 -31 12 -57 21 -59 21 -2 0 -13 -27 -24 -60z"/>
<path d="M2976 243 c-9 -26 -16 -52 -16 -59 0 -7 28 -22 62 -33 33 -11 58 -18
55 -15 -3 3 1 20 8 37 29 72 29 75 -7 90 -79 33 -85 31 -102 -20z"/>
<path d="M761 147 c-25 -66 -26 -63 38 -85 l61 -21 10 41 c6 22 9 43 6 46 -3
3 -29 13 -56 23 -51 18 -51 18 -59 -4z"/>
</g>
</svg>
